<svg width="221" height="68" xmlns="http://www.w3.org/2000/svg">
  <path d="M45.596 45.816l-2.112-23.52c-6.528 13.44-5.088 41.952-20.64 41.952-.864 0-1.728-.096-2.688-.288-10.464-2.592-10.56-19.008-10.56-28.032v-1.824c0-28.512-7.968-35.616-14.784-37.152-1.248-.288-6.144-.576-6.144-1.632 0-.768.192-1.056 1.632-1.056h26.592c2.784 0 13.344 19.008 19.296 38.784 4.992-12.288 5.952-13.536 6.624-14.784-1.92-12.384-2.688-13.92-3.552-15.552-2.88-5.376-7.776-6.528-13.92-6.624-.48 0-.576-.384-.576-.672 0-.576.672-.768.864-.864 1.44-.192 2.88-.096 8.928-.096 4.32 0 10.848 0 21.408.096.096 0 .384.096.672.384C66.812 16.728 68.924 21.72 70.076 26.52c.48.576.576.576.672.576 1.344 0 6.432-18.816 6.432-22.944 0-2.688-1.728-6.24-4.32-7.296-1.536-.384-3.072-.48-6.528-.48-1.44 0-2.592 0-4.224-.192-.48-.096-.768-.288-.768-.864 0-.384.096-.768.48-.768 13.248 0 18.72-.288 20.832-.288 1.44 0 1.92.576 1.92 1.056 0 .48-.48.768-.96.768-.96 0-2.976 2.88-3.456 5.664-2.496 15.744-4.992 56.16-17.856 61.632-1.632.672-3.744.768-5.376.768-8.352 0-10.752-12.192-11.328-18.336zm38.496 7.008c-1.824-3.648-2.784-7.68-2.784-12 0-3.264.576-6.624 1.824-9.888C88.028 18.264 98.684 10.2 112.892 10.2c9.504 0 20.832 7.488 20.832 17.856 0 2.976-1.344 5.088-4.416 5.088s-5.664-1.728-8.832-1.728c-5.28 0-14.016 6.048-16.416 10.656-.96 1.824-1.44 3.552-1.44 5.568 0 5.088 4.608 9.504 9.504 9.504 9.504 0 16.8-7.296 20.16-15.552.864-2.112 1.056-3.552 1.632-5.952.096-.192.192-.384.384-.384.096 0 .288.096.288.48 0 9.888-5.472 19.296-14.112 24.192-4.512 2.592-9.408 3.552-14.784 3.552-9.504 0-17.088-1.536-21.6-10.656zm17.568-27.456c0 4.128.576 8.064 1.152 13.44 3.456-3.648 5.952-5.184 8.16-7.104 3.168-2.784 6.528-7.776 6.528-12.288 0-3.552-2.784-6.72-6.72-6.72-6.72 0-9.12 7.392-9.12 12.672zm43.104 38.112c-4.224 0-7.776-6.144-7.776-9.408 0-4.032.384-8.64 8.16-33.888 1.152-3.648 1.536-7.008 1.536-10.752 0-7.488-1.824-12.768-9.696-14.016-.288 0-.48-.384-.48-.672 0-.288.096-.48.48-.48h14.688c.576 0 1.824 1.056 2.208 1.44 5.568 5.088 7.584 12.288 7.584 19.584-.48 8.16-2.592 13.632-2.592 18.528 0 4.32 1.824 8.832 2.592 12.96.288 1.44.192 4.416.288 5.856v.384c0 4.992-3.264 10.464-8.928 10.464h-8.064zm21.792 2.88c0-13.728 9.408-25.92 9.408-39.936 0-4.416-.864-9.12-4.512-12.384-2.592-2.304-5.856-.672-5.856-2.304 0-.672.48-1.056 1.152-1.152h9.216c5.088 0 9.024 2.496 12.192 6.432 3.456-2.4 7.776-5.856 12.288-5.856 14.592 0 20.448 17.952 20.448 30.72 0 12-3.936 22.464-17.184 22.464-2.496 0-10.176-2.4-13.44-5.664.288 1.344.384 3.168.384 4.608 0 7.2-3.744 14.496-11.904 14.496-6.72 0-12.192-3.744-12.192-11.424zm23.04-17.472c0 3.072 1.056 7.008 4.608 7.008 4.032 0 4.416-2.976 4.8-6.24v-.384l.672-6.144c.576-5.088 3.168-9.408 3.168-14.784 0-5.088-3.264-11.808-9.12-11.808-1.44 0-4.224.96-4.608 2.592 1.824 4.416 2.112 8.928 2.112 13.824 0 5.376-1.632 10.656-1.632 15.936z" fill="#FFF" fill-rule="evenodd" class="welp-path" />
</svg>